<?xml version="1.0" encoding="UTF-8"?>
<svg xmlns="http://www.w3.org/2000/svg" xmlns:xlink="http://www.w3.org/1999/xlink" width="223pt" height="52pt" viewBox="0 0 223 52" version="1.1">
<g id="surface1">
<path style=" stroke:none;fill-rule:nonzero;fill:rgb(3.529412%,50.196078%,80.784314%);fill-opacity:1;" d="M 79.777344 43.332031 C 75.289062 43.332031 71.8125 42.242188 69.347656 40.054688 C 66.886719 37.871094 65.652344 34.636719 65.652344 30.359375 L 65.652344 9.257812 L 71.929688 9.257812 L 71.929688 30.183594 C 71.929688 32.765625 72.605469 34.71875 73.953125 36.042969 C 75.324219 37.394531 77.265625 38.066406 79.777344 38.066406 C 82.289062 38.066406 84.238281 37.394531 85.636719 36.042969 C 87.03125 34.71875 87.726562 32.765625 87.726562 30.183594 L 87.726562 9.257812 L 93.96875 9.257812 L 93.96875 30.359375 C 93.96875 34.636719 92.738281 37.871094 90.273438 40.054688 C 87.808594 42.242188 84.308594 43.332031 79.777344 43.332031 Z M 98.363281 42.742188 L 98.363281 39.777344 L 116.425781 14.5625 L 99.652344 14.5625 L 99.652344 9.257812 L 125.667969 9.257812 L 125.667969 12.292969 L 107.640625 37.4375 L 126.121094 37.4375 L 126.121094 42.742188 Z M 130.761719 42.742188 L 130.761719 9.257812 L 146.871094 9.257812 C 150.453125 9.257812 153.160156 10.203125 154.996094 12.085938 C 156.855469 13.96875 157.785156 16.582031 157.785156 19.929688 C 157.785156 23.304688 156.820312 25.953125 154.890625 27.882812 C 152.960938 29.8125 150.171875 30.777344 146.523438 30.777344 L 137.003906 30.777344 L 137.003906 42.742188 Z M 137.003906 25.476562 L 146.3125 25.476562 C 147.941406 25.476562 149.207031 24.988281 150.113281 24.011719 C 151.042969 23.035156 151.507812 21.675781 151.507812 19.929688 C 151.507812 18.257812 151.066406 16.945312 150.183594 15.992188 C 149.300781 15.039062 148.011719 14.5625 146.3125 14.5625 L 137.003906 14.5625 Z M 163.296875 42.742188 L 163.296875 9.257812 L 179.40625 9.257812 C 182.988281 9.257812 185.707031 10.203125 187.566406 12.085938 C 189.425781 13.96875 190.355469 16.582031 190.355469 19.929688 C 190.355469 23.304688 189.390625 25.953125 187.460938 27.882812 C 185.507812 29.8125 182.71875 30.777344 179.09375 30.777344 L 169.574219 30.777344 L 169.574219 42.742188 Z M 169.574219 25.476562 L 178.882812 25.476562 C 180.511719 25.476562 181.777344 24.988281 182.683594 24.011719 C 183.589844 23.035156 184.046875 21.675781 184.046875 19.929688 C 184.046875 18.257812 183.613281 16.945312 182.753906 15.992188 C 181.871094 15.039062 180.582031 14.5625 178.882812 14.5625 L 169.574219 14.5625 Z M 208.558594 43.332031 C 206.003906 43.332031 203.667969 42.960938 201.550781 42.21875 C 199.433594 41.472656 197.738281 40.324219 196.460938 38.765625 C 195.179688 37.230469 194.542969 35.324219 194.542969 33.046875 L 194.613281 32 L 200.886719 32 L 200.855469 32.871094 C 200.855469 34.5 201.550781 35.777344 202.945312 36.707031 C 204.339844 37.613281 206.257812 38.066406 208.699219 38.066406 C 211.304688 38.066406 213.246094 37.695312 214.523438 36.949219 C 215.800781 36.183594 216.441406 35.136719 216.441406 33.8125 C 216.441406 32.765625 216.058594 31.90625 215.289062 31.230469 C 214.546875 30.535156 213.628906 29.988281 212.535156 29.59375 C 211.417969 29.171875 209.851562 28.695312 207.828125 28.164062 C 205.15625 27.441406 203.003906 26.742188 201.375 26.070312 C 199.726562 25.394531 198.320312 24.40625 197.15625 23.105469 C 195.972656 21.78125 195.378906 20.046875 195.378906 17.910156 C 195.378906 14.910156 196.621094 12.621094 199.109375 11.039062 C 201.574219 9.457031 204.804688 8.667969 208.804688 8.667969 C 212.640625 8.667969 215.777344 9.46875 218.21875 11.074219 C 220.636719 12.699219 221.847656 15.140625 221.847656 18.398438 L 221.847656 18.953125 L 215.710938 18.953125 L 215.710938 18.433594 C 215.710938 17.035156 215.082031 15.945312 213.824219 15.152344 C 212.570312 14.339844 210.886719 13.933594 208.769531 13.933594 C 206.5625 13.933594 204.828125 14.257812 203.574219 14.910156 C 202.316406 15.558594 201.691406 16.480469 201.691406 17.664062 C 201.691406 18.523438 202.050781 19.257812 202.773438 19.863281 C 203.46875 20.464844 204.363281 20.953125 205.457031 21.328125 C 206.550781 21.699219 208.027344 22.128906 209.886719 22.617188 C 212.582031 23.335938 214.789062 24.046875 216.511719 24.746094 C 218.207031 25.417969 219.671875 26.417969 220.90625 27.742188 C 222.113281 29.09375 222.71875 30.824219 222.71875 32.941406 C 222.71875 36.519531 221.453125 39.148438 218.917969 40.820312 C 216.382812 42.496094 212.929688 43.332031 208.558594 43.332031 Z M 208.558594 43.332031 "/>
<path style=" stroke:none;fill-rule:nonzero;fill:rgb(100%,7.45098%,58.039216%);fill-opacity:1;" d="M 1.605469 13.375 C 1.605469 13.789062 1.269531 14.128906 0.855469 14.128906 C 0.441406 14.128906 0.105469 13.789062 0.105469 13.375 C 0.105469 12.960938 0.441406 12.625 0.855469 12.625 C 1.269531 12.625 1.605469 12.960938 1.605469 13.375 Z M 3.710938 13.375 C 3.710938 13.789062 3.375 14.128906 2.957031 14.128906 C 2.542969 14.128906 2.207031 13.789062 2.207031 13.375 C 2.207031 12.960938 2.542969 12.625 2.957031 12.625 C 3.375 12.625 3.710938 12.960938 3.710938 13.375 Z M 3.710938 15.480469 C 3.710938 15.894531 3.375 16.230469 2.957031 16.230469 C 2.542969 16.230469 2.207031 15.894531 2.207031 15.480469 C 2.207031 15.066406 2.542969 14.726562 2.957031 14.726562 C 3.375 14.726562 3.710938 15.066406 3.710938 15.480469 Z M 3.710938 17.582031 C 3.710938 18 3.375 18.335938 2.957031 18.335938 C 2.542969 18.335938 2.207031 18 2.207031 17.582031 C 2.207031 17.167969 2.542969 16.832031 2.957031 16.832031 C 3.375 16.832031 3.710938 17.167969 3.710938 17.582031 Z M 3.710938 19.6875 C 3.710938 20.101562 3.375 20.4375 2.957031 20.4375 C 2.542969 20.4375 2.207031 20.101562 2.207031 19.6875 C 2.207031 19.273438 2.542969 18.9375 2.957031 18.9375 C 3.375 18.9375 3.710938 19.273438 3.710938 19.6875 Z M 5.8125 13.375 C 5.8125 13.789062 5.476562 14.128906 5.0625 14.128906 C 4.648438 14.128906 4.3125 13.789062 4.3125 13.375 C 4.3125 12.960938 4.648438 12.625 5.0625 12.625 C 5.476562 12.625 5.8125 12.960938 5.8125 13.375 Z M 5.8125 15.480469 C 5.8125 15.894531 5.476562 16.230469 5.0625 16.230469 C 4.648438 16.230469 4.3125 15.894531 4.3125 15.480469 C 4.3125 15.066406 4.648438 14.726562 5.0625 14.726562 C 5.476562 14.726562 5.8125 15.066406 5.8125 15.480469 Z M 5.8125 17.582031 C 5.8125 18 5.476562 18.335938 5.0625 18.335938 C 4.648438 18.335938 4.3125 18 4.3125 17.582031 C 4.3125 17.167969 4.648438 16.832031 5.0625 16.832031 C 5.476562 16.832031 5.8125 17.167969 5.8125 17.582031 Z M 5.8125 19.6875 C 5.8125 20.101562 5.476562 20.4375 5.0625 20.4375 C 4.648438 20.4375 4.3125 20.101562 4.3125 19.6875 C 4.3125 19.273438 4.648438 18.9375 5.0625 18.9375 C 5.476562 18.9375 5.8125 19.273438 5.8125 19.6875 Z M 5.8125 21.792969 C 5.8125 22.207031 5.476562 22.542969 5.0625 22.542969 C 4.648438 22.542969 4.3125 22.207031 4.3125 21.792969 C 4.3125 21.375 4.648438 21.039062 5.0625 21.039062 C 5.476562 21.039062 5.8125 21.375 5.8125 21.792969 Z M 7.917969 13.375 C 7.917969 13.789062 7.582031 14.128906 7.167969 14.128906 C 6.75 14.128906 6.414062 13.789062 6.414062 13.375 C 6.414062 12.960938 6.75 12.625 7.167969 12.625 C 7.582031 12.625 7.917969 12.960938 7.917969 13.375 Z M 7.917969 15.480469 C 7.917969 15.894531 7.582031 16.230469 7.167969 16.230469 C 6.75 16.230469 6.414062 15.894531 6.414062 15.480469 C 6.414062 15.066406 6.75 14.726562 7.167969 14.726562 C 7.582031 14.726562 7.917969 15.066406 7.917969 15.480469 Z M 7.917969 17.582031 C 7.917969 18 7.582031 18.335938 7.167969 18.335938 C 6.75 18.335938 6.414062 18 6.414062 17.582031 C 6.414062 17.167969 6.75 16.832031 7.167969 16.832031 C 7.582031 16.832031 7.917969 17.167969 7.917969 17.582031 Z M 7.917969 19.6875 C 7.917969 20.101562 7.582031 20.4375 7.167969 20.4375 C 6.75 20.4375 6.414062 20.101562 6.414062 19.6875 C 6.414062 19.273438 6.75 18.9375 7.167969 18.9375 C 7.582031 18.9375 7.917969 19.273438 7.917969 19.6875 Z M 7.917969 21.792969 C 7.917969 22.207031 7.582031 22.542969 7.167969 22.542969 C 6.75 22.542969 6.414062 22.207031 6.414062 21.792969 C 6.414062 21.375 6.75 21.039062 7.167969 21.039062 C 7.582031 21.039062 7.917969 21.375 7.917969 21.792969 Z M 10.023438 13.375 C 10.023438 13.789062 9.683594 14.128906 9.269531 14.128906 C 8.855469 14.128906 8.519531 13.789062 8.519531 13.375 C 8.519531 12.960938 8.855469 12.625 9.269531 12.625 C 9.683594 12.625 10.023438 12.960938 10.023438 13.375 Z M 10.023438 15.480469 C 10.023438 15.894531 9.683594 16.230469 9.269531 16.230469 C 8.855469 16.230469 8.519531 15.894531 8.519531 15.480469 C 8.519531 15.066406 8.855469 14.726562 9.269531 14.726562 C 9.683594 14.726562 10.023438 15.066406 10.023438 15.480469 Z M 10.023438 19.6875 C 10.023438 20.101562 9.683594 20.4375 9.269531 20.4375 C 8.855469 20.4375 8.519531 20.101562 8.519531 19.6875 C 8.519531 19.273438 8.855469 18.9375 9.269531 18.9375 C 9.683594 18.9375 10.023438 19.273438 10.023438 19.6875 Z M 10.023438 21.792969 C 10.023438 22.207031 9.683594 22.542969 9.269531 22.542969 C 8.855469 22.542969 8.519531 22.207031 8.519531 21.792969 C 8.519531 21.375 8.855469 21.039062 9.269531 21.039062 C 9.683594 21.039062 10.023438 21.375 10.023438 21.792969 Z M 10.023438 26 C 10.023438 26.414062 9.683594 26.75 9.269531 26.75 C 8.855469 26.75 8.519531 26.414062 8.519531 26 C 8.519531 25.585938 8.855469 25.25 9.269531 25.25 C 9.683594 25.25 10.023438 25.585938 10.023438 26 Z M 12.125 11.273438 C 12.125 11.6875 11.789062 12.023438 11.375 12.023438 C 10.960938 12.023438 10.621094 11.6875 10.621094 11.273438 C 10.621094 10.855469 10.960938 10.519531 11.375 10.519531 C 11.789062 10.519531 12.125 10.855469 12.125 11.273438 Z M 12.125 13.375 C 12.125 13.789062 11.789062 14.128906 11.375 14.128906 C 10.960938 14.128906 10.621094 13.789062 10.621094 13.375 C 10.621094 12.960938 10.960938 12.625 11.375 12.625 C 11.789062 12.625 12.125 12.960938 12.125 13.375 Z M 12.125 15.480469 C 12.125 15.894531 11.789062 16.230469 11.375 16.230469 C 10.960938 16.230469 10.621094 15.894531 10.621094 15.480469 C 10.621094 15.066406 10.960938 14.726562 11.375 14.726562 C 11.789062 14.726562 12.125 15.066406 12.125 15.480469 Z M 12.125 19.6875 C 12.125 20.101562 11.789062 20.4375 11.375 20.4375 C 10.960938 20.4375 10.621094 20.101562 10.621094 19.6875 C 10.621094 19.273438 10.960938 18.9375 11.375 18.9375 C 11.789062 18.9375 12.125 19.273438 12.125 19.6875 Z M 12.125 21.792969 C 12.125 22.207031 11.789062 22.542969 11.375 22.542969 C 10.960938 22.542969 10.621094 22.207031 10.621094 21.792969 C 10.621094 21.375 10.960938 21.039062 11.375 21.039062 C 11.789062 21.039062 12.125 21.375 12.125 21.792969 Z M 12.125 26 C 12.125 26.414062 11.789062 26.75 11.375 26.75 C 10.960938 26.75 10.621094 26.414062 10.621094 26 C 10.621094 25.585938 10.960938 25.25 11.375 25.25 C 11.789062 25.25 12.125 25.585938 12.125 26 Z M 12.125 28.105469 C 12.125 28.519531 11.789062 28.855469 11.375 28.855469 C 10.960938 28.855469 10.621094 28.519531 10.621094 28.105469 C 10.621094 27.6875 10.960938 27.351562 11.375 27.351562 C 11.789062 27.351562 12.125 27.6875 12.125 28.105469 Z M 14.230469 13.375 C 14.230469 13.789062 13.894531 14.128906 13.476562 14.128906 C 13.0625 14.128906 12.726562 13.789062 12.726562 13.375 C 12.726562 12.960938 13.0625 12.625 13.476562 12.625 C 13.894531 12.625 14.230469 12.960938 14.230469 13.375 Z M 14.230469 15.480469 C 14.230469 15.894531 13.894531 16.230469 13.476562 16.230469 C 13.0625 16.230469 12.726562 15.894531 12.726562 15.480469 C 12.726562 15.066406 13.0625 14.726562 13.476562 14.726562 C 13.894531 14.726562 14.230469 15.066406 14.230469 15.480469 Z M 14.230469 17.582031 C 14.230469 18 13.894531 18.335938 13.476562 18.335938 C 13.0625 18.335938 12.726562 18 12.726562 17.582031 C 12.726562 17.167969 13.0625 16.832031 13.476562 16.832031 C 13.894531 16.832031 14.230469 17.167969 14.230469 17.582031 Z M 14.230469 19.6875 C 14.230469 20.101562 13.894531 20.4375 13.476562 20.4375 C 13.0625 20.4375 12.726562 20.101562 12.726562 19.6875 C 12.726562 19.273438 13.0625 18.9375 13.476562 18.9375 C 13.894531 18.9375 14.230469 19.273438 14.230469 19.6875 Z M 14.230469 21.792969 C 14.230469 22.207031 13.894531 22.542969 13.476562 22.542969 C 13.0625 22.542969 12.726562 22.207031 12.726562 21.792969 C 12.726562 21.375 13.0625 21.039062 13.476562 21.039062 C 13.894531 21.039062 14.230469 21.375 14.230469 21.792969 Z M 14.230469 26 C 14.230469 26.414062 13.894531 26.75 13.476562 26.75 C 13.0625 26.75 12.726562 26.414062 12.726562 26 C 12.726562 25.585938 13.0625 25.25 13.476562 25.25 C 13.894531 25.25 14.230469 25.585938 14.230469 26 Z M 14.230469 28.105469 C 14.230469 28.519531 13.894531 28.855469 13.476562 28.855469 C 13.0625 28.855469 12.726562 28.519531 12.726562 28.105469 C 12.726562 27.6875 13.0625 27.351562 13.476562 27.351562 C 13.894531 27.351562 14.230469 27.6875 14.230469 28.105469 Z M 16.332031 13.375 C 16.332031 13.789062 15.996094 14.128906 15.582031 14.128906 C 15.167969 14.128906 14.832031 13.789062 14.832031 13.375 C 14.832031 12.960938 15.167969 12.625 15.582031 12.625 C 15.996094 12.625 16.332031 12.960938 16.332031 13.375 Z M 16.332031 15.480469 C 16.332031 15.894531 15.996094 16.230469 15.582031 16.230469 C 15.167969 16.230469 14.832031 15.894531 14.832031 15.480469 C 14.832031 15.066406 15.167969 14.726562 15.582031 14.726562 C 15.996094 14.726562 16.332031 15.066406 16.332031 15.480469 Z M 16.332031 17.582031 C 16.332031 18 15.996094 18.335938 15.582031 18.335938 C 15.167969 18.335938 14.832031 18 14.832031 17.582031 C 14.832031 17.167969 15.167969 16.832031 15.582031 16.832031 C 15.996094 16.832031 16.332031 17.167969 16.332031 17.582031 Z M 16.332031 19.6875 C 16.332031 20.101562 15.996094 20.4375 15.582031 20.4375 C 15.167969 20.4375 14.832031 20.101562 14.832031 19.6875 C 14.832031 19.273438 15.167969 18.9375 15.582031 18.9375 C 15.996094 18.9375 16.332031 19.273438 16.332031 19.6875 Z M 16.332031 21.792969 C 16.332031 22.207031 15.996094 22.542969 15.582031 22.542969 C 15.167969 22.542969 14.832031 22.207031 14.832031 21.792969 C 14.832031 21.375 15.167969 21.039062 15.582031 21.039062 C 15.996094 21.039062 16.332031 21.375 16.332031 21.792969 Z M 16.332031 23.894531 C 16.332031 24.3125 15.996094 24.648438 15.582031 24.648438 C 15.167969 24.648438 14.832031 24.3125 14.832031 23.894531 C 14.832031 23.480469 15.167969 23.144531 15.582031 23.144531 C 15.996094 23.144531 16.332031 23.480469 16.332031 23.894531 Z M 16.332031 26 C 16.332031 26.414062 15.996094 26.75 15.582031 26.75 C 15.167969 26.75 14.832031 26.414062 14.832031 26 C 14.832031 25.585938 15.167969 25.25 15.582031 25.25 C 15.996094 25.25 16.332031 25.585938 16.332031 26 Z M 16.332031 28.105469 C 16.332031 28.519531 15.996094 28.855469 15.582031 28.855469 C 15.167969 28.855469 14.832031 28.519531 14.832031 28.105469 C 14.832031 27.6875 15.167969 27.351562 15.582031 27.351562 C 15.996094 27.351562 16.332031 27.6875 16.332031 28.105469 Z M 18.4375 11.273438 C 18.4375 11.6875 18.101562 12.023438 17.6875 12.023438 C 17.269531 12.023438 16.933594 11.6875 16.933594 11.273438 C 16.933594 10.855469 17.269531 10.519531 17.6875 10.519531 C 18.101562 10.519531 18.4375 10.855469 18.4375 11.273438 Z M 18.4375 13.375 C 18.4375 13.789062 18.101562 14.128906 17.6875 14.128906 C 17.269531 14.128906 16.933594 13.789062 16.933594 13.375 C 16.933594 12.960938 17.269531 12.625 17.6875 12.625 C 18.101562 12.625 18.4375 12.960938 18.4375 13.375 Z M 18.4375 15.480469 C 18.4375 15.894531 18.101562 16.230469 17.6875 16.230469 C 17.269531 16.230469 16.933594 15.894531 16.933594 15.480469 C 16.933594 15.066406 17.269531 14.726562 17.6875 14.726562 C 18.101562 14.726562 18.4375 15.066406 18.4375 15.480469 Z M 18.4375 17.582031 C 18.4375 18 18.101562 18.335938 17.6875 18.335938 C 17.269531 18.335938 16.933594 18 16.933594 17.582031 C 16.933594 17.167969 17.269531 16.832031 17.6875 16.832031 C 18.101562 16.832031 18.4375 17.167969 18.4375 17.582031 Z M 18.4375 19.6875 C 18.4375 20.101562 18.101562 20.4375 17.6875 20.4375 C 17.269531 20.4375 16.933594 20.101562 16.933594 19.6875 C 16.933594 19.273438 17.269531 18.9375 17.6875 18.9375 C 18.101562 18.9375 18.4375 19.273438 18.4375 19.6875 Z M 18.4375 21.792969 C 18.4375 22.207031 18.101562 22.542969 17.6875 22.542969 C 17.269531 22.542969 16.933594 22.207031 16.933594 21.792969 C 16.933594 21.375 17.269531 21.039062 17.6875 21.039062 C 18.101562 21.039062 18.4375 21.375 18.4375 21.792969 Z M 18.4375 23.894531 C 18.4375 24.3125 18.101562 24.648438 17.6875 24.648438 C 17.269531 24.648438 16.933594 24.3125 16.933594 23.894531 C 16.933594 23.480469 17.269531 23.144531 17.6875 23.144531 C 18.101562 23.144531 18.4375 23.480469 18.4375 23.894531 Z M 18.4375 26 C 18.4375 26.414062 18.101562 26.75 17.6875 26.75 C 17.269531 26.75 16.933594 26.414062 16.933594 26 C 16.933594 25.585938 17.269531 25.25 17.6875 25.25 C 18.101562 25.25 18.4375 25.585938 18.4375 26 Z M 18.4375 28.105469 C 18.4375 28.519531 18.101562 28.855469 17.6875 28.855469 C 17.269531 28.855469 16.933594 28.519531 16.933594 28.105469 C 16.933594 27.6875 17.269531 27.351562 17.6875 27.351562 C 18.101562 27.351562 18.4375 27.6875 18.4375 28.105469 Z M 18.4375 30.207031 C 18.4375 30.625 18.101562 30.960938 17.6875 30.960938 C 17.269531 30.960938 16.933594 30.625 16.933594 30.207031 C 16.933594 29.792969 17.269531 29.457031 17.6875 29.457031 C 18.101562 29.457031 18.4375 29.792969 18.4375 30.207031 Z M 20.539062 4.960938 C 20.539062 5.375 20.203125 5.710938 19.789062 5.710938 C 19.375 5.710938 19.039062 5.375 19.039062 4.960938 C 19.039062 4.542969 19.375 4.207031 19.789062 4.207031 C 20.203125 4.207031 20.539062 4.542969 20.539062 4.960938 Z M 20.539062 9.167969 C 20.539062 9.582031 20.203125 9.917969 19.789062 9.917969 C 19.375 9.917969 19.039062 9.582031 19.039062 9.167969 C 19.039062 8.753906 19.375 8.417969 19.789062 8.417969 C 20.203125 8.417969 20.539062 8.753906 20.539062 9.167969 Z M 20.539062 11.273438 C 20.539062 11.6875 20.203125 12.023438 19.789062 12.023438 C 19.375 12.023438 19.039062 11.6875 19.039062 11.273438 C 19.039062 10.855469 19.375 10.519531 19.789062 10.519531 C 20.203125 10.519531 20.539062 10.855469 20.539062 11.273438 Z M 20.539062 13.375 C 20.539062 13.789062 20.203125 14.128906 19.789062 14.128906 C 19.375 14.128906 19.039062 13.789062 19.039062 13.375 C 19.039062 12.960938 19.375 12.625 19.789062 12.625 C 20.203125 12.625 20.539062 12.960938 20.539062 13.375 Z M 20.539062 15.480469 C 20.539062 15.894531 20.203125 16.230469 19.789062 16.230469 C 19.375 16.230469 19.039062 15.894531 19.039062 15.480469 C 19.039062 15.066406 19.375 14.726562 19.789062 14.726562 C 20.203125 14.726562 20.539062 15.066406 20.539062 15.480469 Z M 20.539062 17.582031 C 20.539062 18 20.203125 18.335938 19.789062 18.335938 C 19.375 18.335938 19.039062 18 19.039062 17.582031 C 19.039062 17.167969 19.375 16.832031 19.789062 16.832031 C 20.203125 16.832031 20.539062 17.167969 20.539062 17.582031 Z M 20.539062 19.6875 C 20.539062 20.101562 20.203125 20.4375 19.789062 20.4375 C 19.375 20.4375 19.039062 20.101562 19.039062 19.6875 C 19.039062 19.273438 19.375 18.9375 19.789062 18.9375 C 20.203125 18.9375 20.539062 19.273438 20.539062 19.6875 Z M 20.539062 21.792969 C 20.539062 22.207031 20.203125 22.542969 19.789062 22.542969 C 19.375 22.542969 19.039062 22.207031 19.039062 21.792969 C 19.039062 21.375 19.375 21.039062 19.789062 21.039062 C 20.203125 21.039062 20.539062 21.375 20.539062 21.792969 Z M 20.539062 23.894531 C 20.539062 24.3125 20.203125 24.648438 19.789062 24.648438 C 19.375 24.648438 19.039062 24.3125 19.039062 23.894531 C 19.039062 23.480469 19.375 23.144531 19.789062 23.144531 C 20.203125 23.144531 20.539062 23.480469 20.539062 23.894531 Z M 20.539062 26 C 20.539062 26.414062 20.203125 26.75 19.789062 26.75 C 19.375 26.75 19.039062 26.414062 19.039062 26 C 19.039062 25.585938 19.375 25.25 19.789062 25.25 C 20.203125 25.25 20.539062 25.585938 20.539062 26 Z M 20.539062 28.105469 C 20.539062 28.519531 20.203125 28.855469 19.789062 28.855469 C 19.375 28.855469 19.039062 28.519531 19.039062 28.105469 C 19.039062 27.6875 19.375 27.351562 19.789062 27.351562 C 20.203125 27.351562 20.539062 27.6875 20.539062 28.105469 Z M 20.539062 30.207031 C 20.539062 30.625 20.203125 30.960938 19.789062 30.960938 C 19.375 30.960938 19.039062 30.625 19.039062 30.207031 C 19.039062 29.792969 19.375 29.457031 19.789062 29.457031 C 20.203125 29.457031 20.539062 29.792969 20.539062 30.207031 Z M 20.539062 32.3125 C 20.539062 32.726562 20.203125 33.0625 19.789062 33.0625 C 19.375 33.0625 19.039062 32.726562 19.039062 32.3125 C 19.039062 31.898438 19.375 31.5625 19.789062 31.5625 C 20.203125 31.5625 20.539062 31.898438 20.539062 32.3125 Z M 22.644531 4.960938 C 22.644531 5.375 22.308594 5.710938 21.894531 5.710938 C 21.476562 5.710938 21.140625 5.375 21.140625 4.960938 C 21.140625 4.542969 21.476562 4.207031 21.894531 4.207031 C 22.308594 4.207031 22.644531 4.542969 22.644531 4.960938 Z M 22.644531 7.0625 C 22.644531 7.480469 22.308594 7.816406 21.894531 7.816406 C 21.476562 7.816406 21.140625 7.480469 21.140625 7.0625 C 21.140625 6.648438 21.476562 6.3125 21.894531 6.3125 C 22.308594 6.3125 22.644531 6.648438 22.644531 7.0625 Z M 22.644531 9.167969 C 22.644531 9.582031 22.308594 9.917969 21.894531 9.917969 C 21.476562 9.917969 21.140625 9.582031 21.140625 9.167969 C 21.140625 8.753906 21.476562 8.417969 21.894531 8.417969 C 22.308594 8.417969 22.644531 8.753906 22.644531 9.167969 Z M 22.644531 11.273438 C 22.644531 11.6875 22.308594 12.023438 21.894531 12.023438 C 21.476562 12.023438 21.140625 11.6875 21.140625 11.273438 C 21.140625 10.855469 21.476562 10.519531 21.894531 10.519531 C 22.308594 10.519531 22.644531 10.855469 22.644531 11.273438 Z M 22.644531 13.375 C 22.644531 13.789062 22.308594 14.128906 21.894531 14.128906 C 21.476562 14.128906 21.140625 13.789062 21.140625 13.375 C 21.140625 12.960938 21.476562 12.625 21.894531 12.625 C 22.308594 12.625 22.644531 12.960938 22.644531 13.375 Z M 22.644531 15.480469 C 22.644531 15.894531 22.308594 16.230469 21.894531 16.230469 C 21.476562 16.230469 21.140625 15.894531 21.140625 15.480469 C 21.140625 15.066406 21.476562 14.726562 21.894531 14.726562 C 22.308594 14.726562 22.644531 15.066406 22.644531 15.480469 Z M 22.644531 17.582031 C 22.644531 18 22.308594 18.335938 21.894531 18.335938 C 21.476562 18.335938 21.140625 18 21.140625 17.582031 C 21.140625 17.167969 21.476562 16.832031 21.894531 16.832031 C 22.308594 16.832031 22.644531 17.167969 22.644531 17.582031 Z M 22.644531 19.6875 C 22.644531 20.101562 22.308594 20.4375 21.894531 20.4375 C 21.476562 20.4375 21.140625 20.101562 21.140625 19.6875 C 21.140625 19.273438 21.476562 18.9375 21.894531 18.9375 C 22.308594 18.9375 22.644531 19.273438 22.644531 19.6875 Z M 22.644531 21.792969 C 22.644531 22.207031 22.308594 22.542969 21.894531 22.542969 C 21.476562 22.542969 21.140625 22.207031 21.140625 21.792969 C 21.140625 21.375 21.476562 21.039062 21.894531 21.039062 C 22.308594 21.039062 22.644531 21.375 22.644531 21.792969 Z M 22.644531 23.894531 C 22.644531 24.3125 22.308594 24.648438 21.894531 24.648438 C 21.476562 24.648438 21.140625 24.3125 21.140625 23.894531 C 21.140625 23.480469 21.476562 23.144531 21.894531 23.144531 C 22.308594 23.144531 22.644531 23.480469 22.644531 23.894531 Z M 22.644531 26 C 22.644531 26.414062 22.308594 26.75 21.894531 26.75 C 21.476562 26.75 21.140625 26.414062 21.140625 26 C 21.140625 25.585938 21.476562 25.25 21.894531 25.25 C 22.308594 25.25 22.644531 25.585938 22.644531 26 Z M 22.644531 28.105469 C 22.644531 28.519531 22.308594 28.855469 21.894531 28.855469 C 21.476562 28.855469 21.140625 28.519531 21.140625 28.105469 C 21.140625 27.6875 21.476562 27.351562 21.894531 27.351562 C 22.308594 27.351562 22.644531 27.6875 22.644531 28.105469 Z M 22.644531 30.207031 C 22.644531 30.625 22.308594 30.960938 21.894531 30.960938 C 21.476562 30.960938 21.140625 30.625 21.140625 30.207031 C 21.140625 29.792969 21.476562 29.457031 21.894531 29.457031 C 22.308594 29.457031 22.644531 29.792969 22.644531 30.207031 Z M 22.644531 32.3125 C 22.644531 32.726562 22.308594 33.0625 21.894531 33.0625 C 21.476562 33.0625 21.140625 32.726562 21.140625 32.3125 C 21.140625 31.898438 21.476562 31.5625 21.894531 31.5625 C 22.308594 31.5625 22.644531 31.898438 22.644531 32.3125 Z M 22.644531 34.417969 C 22.644531 34.832031 22.308594 35.167969 21.894531 35.167969 C 21.476562 35.167969 21.140625 34.832031 21.140625 34.417969 C 21.140625 34 21.476562 33.664062 21.894531 33.664062 C 22.308594 33.664062 22.644531 34 22.644531 34.417969 Z M 24.75 2.855469 C 24.75 3.269531 24.410156 3.605469 23.996094 3.605469 C 23.582031 3.605469 23.246094 3.269531 23.246094 2.855469 C 23.246094 2.441406 23.582031 2.105469 23.996094 2.105469 C 24.410156 2.105469 24.75 2.441406 24.75 2.855469 Z M 24.75 4.960938 C 24.75 5.375 24.410156 5.710938 23.996094 5.710938 C 23.582031 5.710938 23.246094 5.375 23.246094 4.960938 C 23.246094 4.542969 23.582031 4.207031 23.996094 4.207031 C 24.410156 4.207031 24.75 4.542969 24.75 4.960938 Z M 24.75 7.0625 C 24.75 7.480469 24.410156 7.816406 23.996094 7.816406 C 23.582031 7.816406 23.246094 7.480469 23.246094 7.0625 C 23.246094 6.648438 23.582031 6.3125 23.996094 6.3125 C 24.410156 6.3125 24.75 6.648438 24.75 7.0625 Z M 24.75 9.167969 C 24.75 9.582031 24.410156 9.917969 23.996094 9.917969 C 23.582031 9.917969 23.246094 9.582031 23.246094 9.167969 C 23.246094 8.753906 23.582031 8.417969 23.996094 8.417969 C 24.410156 8.417969 24.75 8.753906 24.75 9.167969 Z M 24.75 11.273438 C 24.75 11.6875 24.410156 12.023438 23.996094 12.023438 C 23.582031 12.023438 23.246094 11.6875 23.246094 11.273438 C 23.246094 10.855469 23.582031 10.519531 23.996094 10.519531 C 24.410156 10.519531 24.75 10.855469 24.75 11.273438 Z M 24.75 13.375 C 24.75 13.789062 24.410156 14.128906 23.996094 14.128906 C 23.582031 14.128906 23.246094 13.789062 23.246094 13.375 C 23.246094 12.960938 23.582031 12.625 23.996094 12.625 C 24.410156 12.625 24.75 12.960938 24.75 13.375 Z M 24.75 15.480469 C 24.75 15.894531 24.410156 16.230469 23.996094 16.230469 C 23.582031 16.230469 23.246094 15.894531 23.246094 15.480469 C 23.246094 15.066406 23.582031 14.726562 23.996094 14.726562 C 24.410156 14.726562 24.75 15.066406 24.75 15.480469 Z M 24.75 17.582031 C 24.75 18 24.410156 18.335938 23.996094 18.335938 C 23.582031 18.335938 23.246094 18 23.246094 17.582031 C 23.246094 17.167969 23.582031 16.832031 23.996094 16.832031 C 24.410156 16.832031 24.75 17.167969 24.75 17.582031 Z M 24.75 23.894531 C 24.75 24.3125 24.410156 24.648438 23.996094 24.648438 C 23.582031 24.648438 23.246094 24.3125 23.246094 23.894531 C 23.246094 23.480469 23.582031 23.144531 23.996094 23.144531 C 24.410156 23.144531 24.75 23.480469 24.75 23.894531 Z M 24.75 26 C 24.75 26.414062 24.410156 26.75 23.996094 26.75 C 23.582031 26.75 23.246094 26.414062 23.246094 26 C 23.246094 25.585938 23.582031 25.25 23.996094 25.25 C 24.410156 25.25 24.75 25.585938 24.75 26 Z M 24.75 28.105469 C 24.75 28.519531 24.410156 28.855469 23.996094 28.855469 C 23.582031 28.855469 23.246094 28.519531 23.246094 28.105469 C 23.246094 27.6875 23.582031 27.351562 23.996094 27.351562 C 24.410156 27.351562 24.75 27.6875 24.75 28.105469 Z M 24.75 30.207031 C 24.75 30.625 24.410156 30.960938 23.996094 30.960938 C 23.582031 30.960938 23.246094 30.625 23.246094 30.207031 C 23.246094 29.792969 23.582031 29.457031 23.996094 29.457031 C 24.410156 29.457031 24.75 29.792969 24.75 30.207031 Z M 24.75 32.3125 C 24.75 32.726562 24.410156 33.0625 23.996094 33.0625 C 23.582031 33.0625 23.246094 32.726562 23.246094 32.3125 C 23.246094 31.898438 23.582031 31.5625 23.996094 31.5625 C 24.410156 31.5625 24.75 31.898438 24.75 32.3125 Z M 24.75 34.417969 C 24.75 34.832031 24.410156 35.167969 23.996094 35.167969 C 23.582031 35.167969 23.246094 34.832031 23.246094 34.417969 C 23.246094 34 23.582031 33.664062 23.996094 33.664062 C 24.410156 33.664062 24.75 34 24.75 34.417969 Z M 24.75 36.519531 C 24.75 36.933594 24.410156 37.273438 23.996094 37.273438 C 23.582031 37.273438 23.246094 36.933594 23.246094 36.519531 C 23.246094 36.105469 23.582031 35.769531 23.996094 35.769531 C 24.410156 35.769531 24.75 36.105469 24.75 36.519531 Z M 24.75 38.625 C 24.75 39.039062 24.410156 39.375 23.996094 39.375 C 23.582031 39.375 23.246094 39.039062 23.246094 38.625 C 23.246094 38.210938 23.582031 37.871094 23.996094 37.871094 C 24.410156 37.871094 24.75 38.210938 24.75 38.625 Z M 24.75 42.832031 C 24.75 43.246094 24.410156 43.582031 23.996094 43.582031 C 23.582031 43.582031 23.246094 43.246094 23.246094 42.832031 C 23.246094 42.417969 23.582031 42.082031 23.996094 42.082031 C 24.410156 42.082031 24.75 42.417969 24.75 42.832031 Z M 26.851562 0.75 C 26.851562 1.167969 26.515625 1.503906 26.101562 1.503906 C 25.6875 1.503906 25.347656 1.167969 25.347656 0.75 C 25.347656 0.335938 25.6875 0 26.101562 0 C 26.515625 0 26.851562 0.335938 26.851562 0.75 Z M 26.851562 2.855469 C 26.851562 3.269531 26.515625 3.605469 26.101562 3.605469 C 25.6875 3.605469 25.347656 3.269531 25.347656 2.855469 C 25.347656 2.441406 25.6875 2.105469 26.101562 2.105469 C 26.515625 2.105469 26.851562 2.441406 26.851562 2.855469 Z M 26.851562 4.960938 C 26.851562 5.375 26.515625 5.710938 26.101562 5.710938 C 25.6875 5.710938 25.347656 5.375 25.347656 4.960938 C 25.347656 4.542969 25.6875 4.207031 26.101562 4.207031 C 26.515625 4.207031 26.851562 4.542969 26.851562 4.960938 Z M 26.851562 7.0625 C 26.851562 7.480469 26.515625 7.816406 26.101562 7.816406 C 25.6875 7.816406 25.347656 7.480469 25.347656 7.0625 C 25.347656 6.648438 25.6875 6.3125 26.101562 6.3125 C 26.515625 6.3125 26.851562 6.648438 26.851562 7.0625 Z M 26.851562 9.167969 C 26.851562 9.582031 26.515625 9.917969 26.101562 9.917969 C 25.6875 9.917969 25.347656 9.582031 25.347656 9.167969 C 25.347656 8.753906 25.6875 8.417969 26.101562 8.417969 C 26.515625 8.417969 26.851562 8.753906 26.851562 9.167969 Z M 26.851562 11.273438 C 26.851562 11.6875 26.515625 12.023438 26.101562 12.023438 C 25.6875 12.023438 25.347656 11.6875 25.347656 11.273438 C 25.347656 10.855469 25.6875 10.519531 26.101562 10.519531 C 26.515625 10.519531 26.851562 10.855469 26.851562 11.273438 Z M 26.851562 13.375 C 26.851562 13.789062 26.515625 14.128906 26.101562 14.128906 C 25.6875 14.128906 25.347656 13.789062 25.347656 13.375 C 25.347656 12.960938 25.6875 12.625 26.101562 12.625 C 26.515625 12.625 26.851562 12.960938 26.851562 13.375 Z M 26.851562 15.480469 C 26.851562 15.894531 26.515625 16.230469 26.101562 16.230469 C 25.6875 16.230469 25.347656 15.894531 25.347656 15.480469 C 25.347656 15.066406 25.6875 14.726562 26.101562 14.726562 C 26.515625 14.726562 26.851562 15.066406 26.851562 15.480469 Z M 26.851562 17.582031 C 26.851562 18 26.515625 18.335938 26.101562 18.335938 C 25.6875 18.335938 25.347656 18 25.347656 17.582031 C 25.347656 17.167969 25.6875 16.832031 26.101562 16.832031 C 26.515625 16.832031 26.851562 17.167969 26.851562 17.582031 Z M 26.851562 19.6875 C 26.851562 20.101562 26.515625 20.4375 26.101562 20.4375 C 25.6875 20.4375 25.347656 20.101562 25.347656 19.6875 C 25.347656 19.273438 25.6875 18.9375 26.101562 18.9375 C 26.515625 18.9375 26.851562 19.273438 26.851562 19.6875 Z M 26.851562 28.105469 C 26.851562 28.519531 26.515625 28.855469 26.101562 28.855469 C 25.6875 28.855469 25.347656 28.519531 25.347656 28.105469 C 25.347656 27.6875 25.6875 27.351562 26.101562 27.351562 C 26.515625 27.351562 26.851562 27.6875 26.851562 28.105469 Z M 26.851562 30.207031 C 26.851562 30.625 26.515625 30.960938 26.101562 30.960938 C 25.6875 30.960938 25.347656 30.625 25.347656 30.207031 C 25.347656 29.792969 25.6875 29.457031 26.101562 29.457031 C 26.515625 29.457031 26.851562 29.792969 26.851562 30.207031 Z M 26.851562 32.3125 C 26.851562 32.726562 26.515625 33.0625 26.101562 33.0625 C 25.6875 33.0625 25.347656 32.726562 25.347656 32.3125 C 25.347656 31.898438 25.6875 31.5625 26.101562 31.5625 C 26.515625 31.5625 26.851562 31.898438 26.851562 32.3125 Z M 26.851562 34.417969 C 26.851562 34.832031 26.515625 35.167969 26.101562 35.167969 C 25.6875 35.167969 25.347656 34.832031 25.347656 34.417969 C 25.347656 34 25.6875 33.664062 26.101562 33.664062 C 26.515625 33.664062 26.851562 34 26.851562 34.417969 Z M 26.851562 36.519531 C 26.851562 36.933594 26.515625 37.273438 26.101562 37.273438 C 25.6875 37.273438 25.347656 36.933594 25.347656 36.519531 C 25.347656 36.105469 25.6875 35.769531 26.101562 35.769531 C 26.515625 35.769531 26.851562 36.105469 26.851562 36.519531 Z M 26.851562 38.625 C 26.851562 39.039062 26.515625 39.375 26.101562 39.375 C 25.6875 39.375 25.347656 39.039062 25.347656 38.625 C 25.347656 38.210938 25.6875 37.871094 26.101562 37.871094 C 26.515625 37.871094 26.851562 38.210938 26.851562 38.625 Z M 26.851562 42.832031 C 26.851562 43.246094 26.515625 43.582031 26.101562 43.582031 C 25.6875 43.582031 25.347656 43.246094 25.347656 42.832031 C 25.347656 42.417969 25.6875 42.082031 26.101562 42.082031 C 26.515625 42.082031 26.851562 42.417969 26.851562 42.832031 Z M 28.957031 0.75 C 28.957031 1.167969 28.621094 1.503906 28.203125 1.503906 C 27.789062 1.503906 27.453125 1.167969 27.453125 0.75 C 27.453125 0.335938 27.789062 0 28.203125 0 C 28.621094 0 28.957031 0.335938 28.957031 0.75 Z M 28.957031 2.855469 C 28.957031 3.269531 28.621094 3.605469 28.203125 3.605469 C 27.789062 3.605469 27.453125 3.269531 27.453125 2.855469 C 27.453125 2.441406 27.789062 2.105469 28.203125 2.105469 C 28.621094 2.105469 28.957031 2.441406 28.957031 2.855469 Z M 28.957031 4.960938 C 28.957031 5.375 28.621094 5.710938 28.203125 5.710938 C 27.789062 5.710938 27.453125 5.375 27.453125 4.960938 C 27.453125 4.542969 27.789062 4.207031 28.203125 4.207031 C 28.621094 4.207031 28.957031 4.542969 28.957031 4.960938 Z M 28.957031 7.0625 C 28.957031 7.480469 28.621094 7.816406 28.203125 7.816406 C 27.789062 7.816406 27.453125 7.480469 27.453125 7.0625 C 27.453125 6.648438 27.789062 6.3125 28.203125 6.3125 C 28.621094 6.3125 28.957031 6.648438 28.957031 7.0625 Z M 28.957031 9.167969 C 28.957031 9.582031 28.621094 9.917969 28.203125 9.917969 C 27.789062 9.917969 27.453125 9.582031 27.453125 9.167969 C 27.453125 8.753906 27.789062 8.417969 28.203125 8.417969 C 28.621094 8.417969 28.957031 8.753906 28.957031 9.167969 Z M 28.957031 11.273438 C 28.957031 11.6875 28.621094 12.023438 28.203125 12.023438 C 27.789062 12.023438 27.453125 11.6875 27.453125 11.273438 C 27.453125 10.855469 27.789062 10.519531 28.203125 10.519531 C 28.621094 10.519531 28.957031 10.855469 28.957031 11.273438 Z M 28.957031 13.375 C 28.957031 13.789062 28.621094 14.128906 28.203125 14.128906 C 27.789062 14.128906 27.453125 13.789062 27.453125 13.375 C 27.453125 12.960938 27.789062 12.625 28.203125 12.625 C 28.621094 12.625 28.957031 12.960938 28.957031 13.375 Z M 28.957031 15.480469 C 28.957031 15.894531 28.621094 16.230469 28.203125 16.230469 C 27.789062 16.230469 27.453125 15.894531 27.453125 15.480469 C 27.453125 15.066406 27.789062 14.726562 28.203125 14.726562 C 28.621094 14.726562 28.957031 15.066406 28.957031 15.480469 Z M 28.957031 17.582031 C 28.957031 18 28.621094 18.335938 28.203125 18.335938 C 27.789062 18.335938 27.453125 18 27.453125 17.582031 C 27.453125 17.167969 27.789062 16.832031 28.203125 16.832031 C 28.621094 16.832031 28.957031 17.167969 28.957031 17.582031 Z M 28.957031 32.3125 C 28.957031 32.726562 28.621094 33.0625 28.203125 33.0625 C 27.789062 33.0625 27.453125 32.726562 27.453125 32.3125 C 27.453125 31.898438 27.789062 31.5625 28.203125 31.5625 C 28.621094 31.5625 28.957031 31.898438 28.957031 32.3125 Z M 28.957031 34.417969 C 28.957031 34.832031 28.621094 35.167969 28.203125 35.167969 C 27.789062 35.167969 27.453125 34.832031 27.453125 34.417969 C 27.453125 34 27.789062 33.664062 28.203125 33.664062 C 28.621094 33.664062 28.957031 34 28.957031 34.417969 Z M 28.957031 36.519531 C 28.957031 36.933594 28.621094 37.273438 28.203125 37.273438 C 27.789062 37.273438 27.453125 36.933594 27.453125 36.519531 C 27.453125 36.105469 27.789062 35.769531 28.203125 35.769531 C 28.621094 35.769531 28.957031 36.105469 28.957031 36.519531 Z M 28.957031 38.625 C 28.957031 39.039062 28.621094 39.375 28.203125 39.375 C 27.789062 39.375 27.453125 39.039062 27.453125 38.625 C 27.453125 38.210938 27.789062 37.871094 28.203125 37.871094 C 28.621094 37.871094 28.957031 38.210938 28.957031 38.625 Z M 28.957031 40.726562 C 28.957031 41.144531 28.621094 41.480469 28.203125 41.480469 C 27.789062 41.480469 27.453125 41.144531 27.453125 40.726562 C 27.453125 40.3125 27.789062 39.976562 28.203125 39.976562 C 28.621094 39.976562 28.957031 40.3125 28.957031 40.726562 Z M 28.957031 42.832031 C 28.957031 43.246094 28.621094 43.582031 28.203125 43.582031 C 27.789062 43.582031 27.453125 43.246094 27.453125 42.832031 C 27.453125 42.417969 27.789062 42.082031 28.203125 42.082031 C 28.621094 42.082031 28.957031 42.417969 28.957031 42.832031 Z M 31.058594 0.75 C 31.058594 1.167969 30.722656 1.503906 30.308594 1.503906 C 29.894531 1.503906 29.558594 1.167969 29.558594 0.75 C 29.558594 0.335938 29.894531 0 30.308594 0 C 30.722656 0 31.058594 0.335938 31.058594 0.75 Z M 31.058594 2.855469 C 31.058594 3.269531 30.722656 3.605469 30.308594 3.605469 C 29.894531 3.605469 29.558594 3.269531 29.558594 2.855469 C 29.558594 2.441406 29.894531 2.105469 30.308594 2.105469 C 30.722656 2.105469 31.058594 2.441406 31.058594 2.855469 Z M 31.058594 4.960938 C 31.058594 5.375 30.722656 5.710938 30.308594 5.710938 C 29.894531 5.710938 29.558594 5.375 29.558594 4.960938 C 29.558594 4.542969 29.894531 4.207031 30.308594 4.207031 C 30.722656 4.207031 31.058594 4.542969 31.058594 4.960938 Z M 31.058594 7.0625 C 31.058594 7.480469 30.722656 7.816406 30.308594 7.816406 C 29.894531 7.816406 29.558594 7.480469 29.558594 7.0625 C 29.558594 6.648438 29.894531 6.3125 30.308594 6.3125 C 30.722656 6.3125 31.058594 6.648438 31.058594 7.0625 Z M 31.058594 9.167969 C 31.058594 9.582031 30.722656 9.917969 30.308594 9.917969 C 29.894531 9.917969 29.558594 9.582031 29.558594 9.167969 C 29.558594 8.753906 29.894531 8.417969 30.308594 8.417969 C 30.722656 8.417969 31.058594 8.753906 31.058594 9.167969 Z M 31.058594 11.273438 C 31.058594 11.6875 30.722656 12.023438 30.308594 12.023438 C 29.894531 12.023438 29.558594 11.6875 29.558594 11.273438 C 29.558594 10.855469 29.894531 10.519531 30.308594 10.519531 C 30.722656 10.519531 31.058594 10.855469 31.058594 11.273438 Z M 31.058594 13.375 C 31.058594 13.789062 30.722656 14.128906 30.308594 14.128906 C 29.894531 14.128906 29.558594 13.789062 29.558594 13.375 C 29.558594 12.960938 29.894531 12.625 30.308594 12.625 C 30.722656 12.625 31.058594 12.960938 31.058594 13.375 Z M 31.058594 15.480469 C 31.058594 15.894531 30.722656 16.230469 30.308594 16.230469 C 29.894531 16.230469 29.558594 15.894531 29.558594 15.480469 C 29.558594 15.066406 29.894531 14.726562 30.308594 14.726562 C 30.722656 14.726562 31.058594 15.066406 31.058594 15.480469 Z M 31.058594 17.582031 C 31.058594 18 30.722656 18.335938 30.308594 18.335938 C 29.894531 18.335938 29.558594 18 29.558594 17.582031 C 29.558594 17.167969 29.894531 16.832031 30.308594 16.832031 C 30.722656 16.832031 31.058594 17.167969 31.058594 17.582031 Z M 31.058594 34.417969 C 31.058594 34.832031 30.722656 35.167969 30.308594 35.167969 C 29.894531 35.167969 29.558594 34.832031 29.558594 34.417969 C 29.558594 34 29.894531 33.664062 30.308594 33.664062 C 30.722656 33.664062 31.058594 34 31.058594 34.417969 Z M 31.058594 36.519531 C 31.058594 36.933594 30.722656 37.273438 30.308594 37.273438 C 29.894531 37.273438 29.558594 36.933594 29.558594 36.519531 C 29.558594 36.105469 29.894531 35.769531 30.308594 35.769531 C 30.722656 35.769531 31.058594 36.105469 31.058594 36.519531 Z M 31.058594 38.625 C 31.058594 39.039062 30.722656 39.375 30.308594 39.375 C 29.894531 39.375 29.558594 39.039062 29.558594 38.625 C 29.558594 38.210938 29.894531 37.871094 30.308594 37.871094 C 30.722656 37.871094 31.058594 38.210938 31.058594 38.625 Z M 31.058594 40.726562 C 31.058594 41.144531 30.722656 41.480469 30.308594 41.480469 C 29.894531 41.480469 29.558594 41.144531 29.558594 40.726562 C 29.558594 40.3125 29.894531 39.976562 30.308594 39.976562 C 30.722656 39.976562 31.058594 40.3125 31.058594 40.726562 Z M 31.058594 42.832031 C 31.058594 43.246094 30.722656 43.582031 30.308594 43.582031 C 29.894531 43.582031 29.558594 43.246094 29.558594 42.832031 C 29.558594 42.417969 29.894531 42.082031 30.308594 42.082031 C 30.722656 42.082031 31.058594 42.417969 31.058594 42.832031 Z M 33.164062 2.855469 C 33.164062 3.269531 32.828125 3.605469 32.414062 3.605469 C 31.996094 3.605469 31.660156 3.269531 31.660156 2.855469 C 31.660156 2.441406 31.996094 2.105469 32.414062 2.105469 C 32.828125 2.105469 33.164062 2.441406 33.164062 2.855469 Z M 33.164062 4.960938 C 33.164062 5.375 32.828125 5.710938 32.414062 5.710938 C 31.996094 5.710938 31.660156 5.375 31.660156 4.960938 C 31.660156 4.542969 31.996094 4.207031 32.414062 4.207031 C 32.828125 4.207031 33.164062 4.542969 33.164062 4.960938 Z M 33.164062 7.0625 C 33.164062 7.480469 32.828125 7.816406 32.414062 7.816406 C 31.996094 7.816406 31.660156 7.480469 31.660156 7.0625 C 31.660156 6.648438 31.996094 6.3125 32.414062 6.3125 C 32.828125 6.3125 33.164062 6.648438 33.164062 7.0625 Z M 33.164062 9.167969 C 33.164062 9.582031 32.828125 9.917969 32.414062 9.917969 C 31.996094 9.917969 31.660156 9.582031 31.660156 9.167969 C 31.660156 8.753906 31.996094 8.417969 32.414062 8.417969 C 32.828125 8.417969 33.164062 8.753906 33.164062 9.167969 Z M 33.164062 11.273438 C 33.164062 11.6875 32.828125 12.023438 32.414062 12.023438 C 31.996094 12.023438 31.660156 11.6875 31.660156 11.273438 C 31.660156 10.855469 31.996094 10.519531 32.414062 10.519531 C 32.828125 10.519531 33.164062 10.855469 33.164062 11.273438 Z M 33.164062 13.375 C 33.164062 13.789062 32.828125 14.128906 32.414062 14.128906 C 31.996094 14.128906 31.660156 13.789062 31.660156 13.375 C 31.660156 12.960938 31.996094 12.625 32.414062 12.625 C 32.828125 12.625 33.164062 12.960938 33.164062 13.375 Z M 33.164062 15.480469 C 33.164062 15.894531 32.828125 16.230469 32.414062 16.230469 C 31.996094 16.230469 31.660156 15.894531 31.660156 15.480469 C 31.660156 15.066406 31.996094 14.726562 32.414062 14.726562 C 32.828125 14.726562 33.164062 15.066406 33.164062 15.480469 Z M 33.164062 17.582031 C 33.164062 18 32.828125 18.335938 32.414062 18.335938 C 31.996094 18.335938 31.660156 18 31.660156 17.582031 C 31.660156 17.167969 31.996094 16.832031 32.414062 16.832031 C 32.828125 16.832031 33.164062 17.167969 33.164062 17.582031 Z M 33.164062 36.519531 C 33.164062 36.933594 32.828125 37.273438 32.414062 37.273438 C 31.996094 37.273438 31.660156 36.933594 31.660156 36.519531 C 31.660156 36.105469 31.996094 35.769531 32.414062 35.769531 C 32.828125 35.769531 33.164062 36.105469 33.164062 36.519531 Z M 33.164062 38.625 C 33.164062 39.039062 32.828125 39.375 32.414062 39.375 C 31.996094 39.375 31.660156 39.039062 31.660156 38.625 C 31.660156 38.210938 31.996094 37.871094 32.414062 37.871094 C 32.828125 37.871094 33.164062 38.210938 33.164062 38.625 Z M 33.164062 44.9375 C 33.164062 45.351562 32.828125 45.6875 32.414062 45.6875 C 31.996094 45.6875 31.660156 45.351562 31.660156 44.9375 C 31.660156 44.519531 31.996094 44.183594 32.414062 44.183594 C 32.828125 44.183594 33.164062 44.519531 33.164062 44.9375 Z M 35.269531 4.960938 C 35.269531 5.375 34.929688 5.710938 34.515625 5.710938 C 34.101562 5.710938 33.765625 5.375 33.765625 4.960938 C 33.765625 4.542969 34.101562 4.207031 34.515625 4.207031 C 34.929688 4.207031 35.269531 4.542969 35.269531 4.960938 Z M 35.269531 7.0625 C 35.269531 7.480469 34.929688 7.816406 34.515625 7.816406 C 34.101562 7.816406 33.765625 7.480469 33.765625 7.0625 C 33.765625 6.648438 34.101562 6.3125 34.515625 6.3125 C 34.929688 6.3125 35.269531 6.648438 35.269531 7.0625 Z M 35.269531 9.167969 C 35.269531 9.582031 34.929688 9.917969 34.515625 9.917969 C 34.101562 9.917969 33.765625 9.582031 33.765625 9.167969 C 33.765625 8.753906 34.101562 8.417969 34.515625 8.417969 C 34.929688 8.417969 35.269531 8.753906 35.269531 9.167969 Z M 35.269531 11.273438 C 35.269531 11.6875 34.929688 12.023438 34.515625 12.023438 C 34.101562 12.023438 33.765625 11.6875 33.765625 11.273438 C 33.765625 10.855469 34.101562 10.519531 34.515625 10.519531 C 34.929688 10.519531 35.269531 10.855469 35.269531 11.273438 Z M 35.269531 13.375 C 35.269531 13.789062 34.929688 14.128906 34.515625 14.128906 C 34.101562 14.128906 33.765625 13.789062 33.765625 13.375 C 33.765625 12.960938 34.101562 12.625 34.515625 12.625 C 34.929688 12.625 35.269531 12.960938 35.269531 13.375 Z M 35.269531 15.480469 C 35.269531 15.894531 34.929688 16.230469 34.515625 16.230469 C 34.101562 16.230469 33.765625 15.894531 33.765625 15.480469 C 33.765625 15.066406 34.101562 14.726562 34.515625 14.726562 C 34.929688 14.726562 35.269531 15.066406 35.269531 15.480469 Z M 35.269531 17.582031 C 35.269531 18 34.929688 18.335938 34.515625 18.335938 C 34.101562 18.335938 33.765625 18 33.765625 17.582031 C 33.765625 17.167969 34.101562 16.832031 34.515625 16.832031 C 34.929688 16.832031 35.269531 17.167969 35.269531 17.582031 Z M 35.269531 38.625 C 35.269531 39.039062 34.929688 39.375 34.515625 39.375 C 34.101562 39.375 33.765625 39.039062 33.765625 38.625 C 33.765625 38.210938 34.101562 37.871094 34.515625 37.871094 C 34.929688 37.871094 35.269531 38.210938 35.269531 38.625 Z M 35.269531 40.726562 C 35.269531 41.144531 34.929688 41.480469 34.515625 41.480469 C 34.101562 41.480469 33.765625 41.144531 33.765625 40.726562 C 33.765625 40.3125 34.101562 39.976562 34.515625 39.976562 C 34.929688 39.976562 35.269531 40.3125 35.269531 40.726562 Z M 35.269531 42.832031 C 35.269531 43.246094 34.929688 43.582031 34.515625 43.582031 C 34.101562 43.582031 33.765625 43.246094 33.765625 42.832031 C 33.765625 42.417969 34.101562 42.082031 34.515625 42.082031 C 34.929688 42.082031 35.269531 42.417969 35.269531 42.832031 Z M 35.269531 44.9375 C 35.269531 45.351562 34.929688 45.6875 34.515625 45.6875 C 34.101562 45.6875 33.765625 45.351562 33.765625 44.9375 C 33.765625 44.519531 34.101562 44.183594 34.515625 44.183594 C 34.929688 44.183594 35.269531 44.519531 35.269531 44.9375 Z M 37.371094 7.0625 C 37.371094 7.480469 37.035156 7.816406 36.621094 7.816406 C 36.207031 7.816406 35.867188 7.480469 35.867188 7.0625 C 35.867188 6.648438 36.207031 6.3125 36.621094 6.3125 C 37.035156 6.3125 37.371094 6.648438 37.371094 7.0625 Z M 37.371094 9.167969 C 37.371094 9.582031 37.035156 9.917969 36.621094 9.917969 C 36.207031 9.917969 35.867188 9.582031 35.867188 9.167969 C 35.867188 8.753906 36.207031 8.417969 36.621094 8.417969 C 37.035156 8.417969 37.371094 8.753906 37.371094 9.167969 Z M 37.371094 11.273438 C 37.371094 11.6875 37.035156 12.023438 36.621094 12.023438 C 36.207031 12.023438 35.867188 11.6875 35.867188 11.273438 C 35.867188 10.855469 36.207031 10.519531 36.621094 10.519531 C 37.035156 10.519531 37.371094 10.855469 37.371094 11.273438 Z M 37.371094 13.375 C 37.371094 13.789062 37.035156 14.128906 36.621094 14.128906 C 36.207031 14.128906 35.867188 13.789062 35.867188 13.375 C 35.867188 12.960938 36.207031 12.625 36.621094 12.625 C 37.035156 12.625 37.371094 12.960938 37.371094 13.375 Z M 37.371094 15.480469 C 37.371094 15.894531 37.035156 16.230469 36.621094 16.230469 C 36.207031 16.230469 35.867188 15.894531 35.867188 15.480469 C 35.867188 15.066406 36.207031 14.726562 36.621094 14.726562 C 37.035156 14.726562 37.371094 15.066406 37.371094 15.480469 Z M 37.371094 17.582031 C 37.371094 18 37.035156 18.335938 36.621094 18.335938 C 36.207031 18.335938 35.867188 18 35.867188 17.582031 C 35.867188 17.167969 36.207031 16.832031 36.621094 16.832031 C 37.035156 16.832031 37.371094 17.167969 37.371094 17.582031 Z M 37.371094 40.726562 C 37.371094 41.144531 37.035156 41.480469 36.621094 41.480469 C 36.207031 41.480469 35.867188 41.144531 35.867188 40.726562 C 35.867188 40.3125 36.207031 39.976562 36.621094 39.976562 C 37.035156 39.976562 37.371094 40.3125 37.371094 40.726562 Z M 37.371094 42.832031 C 37.371094 43.246094 37.035156 43.582031 36.621094 43.582031 C 36.207031 43.582031 35.867188 43.246094 35.867188 42.832031 C 35.867188 42.417969 36.207031 42.082031 36.621094 42.082031 C 37.035156 42.082031 37.371094 42.417969 37.371094 42.832031 Z M 37.371094 44.9375 C 37.371094 45.351562 37.035156 45.6875 36.621094 45.6875 C 36.207031 45.6875 35.867188 45.351562 35.867188 44.9375 C 35.867188 44.519531 36.207031 44.183594 36.621094 44.183594 C 37.035156 44.183594 37.371094 44.519531 37.371094 44.9375 Z M 39.476562 9.167969 C 39.476562 9.582031 39.140625 9.917969 38.722656 9.917969 C 38.308594 9.917969 37.972656 9.582031 37.972656 9.167969 C 37.972656 8.753906 38.308594 8.417969 38.722656 8.417969 C 39.140625 8.417969 39.476562 8.753906 39.476562 9.167969 Z M 39.476562 11.273438 C 39.476562 11.6875 39.140625 12.023438 38.722656 12.023438 C 38.308594 12.023438 37.972656 11.6875 37.972656 11.273438 C 37.972656 10.855469 38.308594 10.519531 38.722656 10.519531 C 39.140625 10.519531 39.476562 10.855469 39.476562 11.273438 Z M 39.476562 13.375 C 39.476562 13.789062 39.140625 14.128906 38.722656 14.128906 C 38.308594 14.128906 37.972656 13.789062 37.972656 13.375 C 37.972656 12.960938 38.308594 12.625 38.722656 12.625 C 39.140625 12.625 39.476562 12.960938 39.476562 13.375 Z M 39.476562 15.480469 C 39.476562 15.894531 39.140625 16.230469 38.722656 16.230469 C 38.308594 16.230469 37.972656 15.894531 37.972656 15.480469 C 37.972656 15.066406 38.308594 14.726562 38.722656 14.726562 C 39.140625 14.726562 39.476562 15.066406 39.476562 15.480469 Z M 39.476562 17.582031 C 39.476562 18 39.140625 18.335938 38.722656 18.335938 C 38.308594 18.335938 37.972656 18 37.972656 17.582031 C 37.972656 17.167969 38.308594 16.832031 38.722656 16.832031 C 39.140625 16.832031 39.476562 17.167969 39.476562 17.582031 Z M 39.476562 42.832031 C 39.476562 43.246094 39.140625 43.582031 38.722656 43.582031 C 38.308594 43.582031 37.972656 43.246094 37.972656 42.832031 C 37.972656 42.417969 38.308594 42.082031 38.722656 42.082031 C 39.140625 42.082031 39.476562 42.417969 39.476562 42.832031 Z M 39.476562 44.9375 C 39.476562 45.351562 39.140625 45.6875 38.722656 45.6875 C 38.308594 45.6875 37.972656 45.351562 37.972656 44.9375 C 37.972656 44.519531 38.308594 44.183594 38.722656 44.183594 C 39.140625 44.183594 39.476562 44.519531 39.476562 44.9375 Z M 39.476562 47.039062 C 39.476562 47.457031 39.140625 47.792969 38.722656 47.792969 C 38.308594 47.792969 37.972656 47.457031 37.972656 47.039062 C 37.972656 46.625 38.308594 46.289062 38.722656 46.289062 C 39.140625 46.289062 39.476562 46.625 39.476562 47.039062 Z M 41.578125 9.167969 C 41.578125 9.582031 41.242188 9.917969 40.828125 9.917969 C 40.414062 9.917969 40.078125 9.582031 40.078125 9.167969 C 40.078125 8.753906 40.414062 8.417969 40.828125 8.417969 C 41.242188 8.417969 41.578125 8.753906 41.578125 9.167969 Z M 41.578125 11.273438 C 41.578125 11.6875 41.242188 12.023438 40.828125 12.023438 C 40.414062 12.023438 40.078125 11.6875 40.078125 11.273438 C 40.078125 10.855469 40.414062 10.519531 40.828125 10.519531 C 41.242188 10.519531 41.578125 10.855469 41.578125 11.273438 Z M 41.578125 13.375 C 41.578125 13.789062 41.242188 14.128906 40.828125 14.128906 C 40.414062 14.128906 40.078125 13.789062 40.078125 13.375 C 40.078125 12.960938 40.414062 12.625 40.828125 12.625 C 41.242188 12.625 41.578125 12.960938 41.578125 13.375 Z M 41.578125 15.480469 C 41.578125 15.894531 41.242188 16.230469 40.828125 16.230469 C 40.414062 16.230469 40.078125 15.894531 40.078125 15.480469 C 40.078125 15.066406 40.414062 14.726562 40.828125 14.726562 C 41.242188 14.726562 41.578125 15.066406 41.578125 15.480469 Z M 41.578125 17.582031 C 41.578125 18 41.242188 18.335938 40.828125 18.335938 C 40.414062 18.335938 40.078125 18 40.078125 17.582031 C 40.078125 17.167969 40.414062 16.832031 40.828125 16.832031 C 41.242188 16.832031 41.578125 17.167969 41.578125 17.582031 Z M 41.578125 19.6875 C 41.578125 20.101562 41.242188 20.4375 40.828125 20.4375 C 40.414062 20.4375 40.078125 20.101562 40.078125 19.6875 C 40.078125 19.273438 40.414062 18.9375 40.828125 18.9375 C 41.242188 18.9375 41.578125 19.273438 41.578125 19.6875 Z M 41.578125 47.039062 C 41.578125 47.457031 41.242188 47.792969 40.828125 47.792969 C 40.414062 47.792969 40.078125 47.457031 40.078125 47.039062 C 40.078125 46.625 40.414062 46.289062 40.828125 46.289062 C 41.242188 46.289062 41.578125 46.625 41.578125 47.039062 Z M 43.683594 9.167969 C 43.683594 9.582031 43.347656 9.917969 42.929688 9.917969 C 42.515625 9.917969 42.179688 9.582031 42.179688 9.167969 C 42.179688 8.753906 42.515625 8.417969 42.929688 8.417969 C 43.347656 8.417969 43.683594 8.753906 43.683594 9.167969 Z M 43.683594 11.273438 C 43.683594 11.6875 43.347656 12.023438 42.929688 12.023438 C 42.515625 12.023438 42.179688 11.6875 42.179688 11.273438 C 42.179688 10.855469 42.515625 10.519531 42.929688 10.519531 C 43.347656 10.519531 43.683594 10.855469 43.683594 11.273438 Z M 43.683594 13.375 C 43.683594 13.789062 43.347656 14.128906 42.929688 14.128906 C 42.515625 14.128906 42.179688 13.789062 42.179688 13.375 C 42.179688 12.960938 42.515625 12.625 42.929688 12.625 C 43.347656 12.625 43.683594 12.960938 43.683594 13.375 Z M 43.683594 15.480469 C 43.683594 15.894531 43.347656 16.230469 42.929688 16.230469 C 42.515625 16.230469 42.179688 15.894531 42.179688 15.480469 C 42.179688 15.066406 42.515625 14.726562 42.929688 14.726562 C 43.347656 14.726562 43.683594 15.066406 43.683594 15.480469 Z M 43.683594 17.582031 C 43.683594 18 43.347656 18.335938 42.929688 18.335938 C 42.515625 18.335938 42.179688 18 42.179688 17.582031 C 42.179688 17.167969 42.515625 16.832031 42.929688 16.832031 C 43.347656 16.832031 43.683594 17.167969 43.683594 17.582031 Z M 43.683594 49.144531 C 43.683594 49.558594 43.347656 49.894531 42.929688 49.894531 C 42.515625 49.894531 42.179688 49.558594 42.179688 49.144531 C 42.179688 48.730469 42.515625 48.394531 42.929688 48.394531 C 43.347656 48.394531 43.683594 48.730469 43.683594 49.144531 Z M 45.785156 9.167969 C 45.785156 9.582031 45.449219 9.917969 45.035156 9.917969 C 44.621094 9.917969 44.285156 9.582031 44.285156 9.167969 C 44.285156 8.753906 44.621094 8.417969 45.035156 8.417969 C 45.449219 8.417969 45.785156 8.753906 45.785156 9.167969 Z M 45.785156 11.273438 C 45.785156 11.6875 45.449219 12.023438 45.035156 12.023438 C 44.621094 12.023438 44.285156 11.6875 44.285156 11.273438 C 44.285156 10.855469 44.621094 10.519531 45.035156 10.519531 C 45.449219 10.519531 45.785156 10.855469 45.785156 11.273438 Z M 45.785156 13.375 C 45.785156 13.789062 45.449219 14.128906 45.035156 14.128906 C 44.621094 14.128906 44.285156 13.789062 44.285156 13.375 C 44.285156 12.960938 44.621094 12.625 45.035156 12.625 C 45.449219 12.625 45.785156 12.960938 45.785156 13.375 Z M 45.785156 15.480469 C 45.785156 15.894531 45.449219 16.230469 45.035156 16.230469 C 44.621094 16.230469 44.285156 15.894531 44.285156 15.480469 C 44.285156 15.066406 44.621094 14.726562 45.035156 14.726562 C 45.449219 14.726562 45.785156 15.066406 45.785156 15.480469 Z M 45.785156 17.582031 C 45.785156 18 45.449219 18.335938 45.035156 18.335938 C 44.621094 18.335938 44.285156 18 44.285156 17.582031 C 44.285156 17.167969 44.621094 16.832031 45.035156 16.832031 C 45.449219 16.832031 45.785156 17.167969 45.785156 17.582031 Z M 45.785156 49.144531 C 45.785156 49.558594 45.449219 49.894531 45.035156 49.894531 C 44.621094 49.894531 44.285156 49.558594 44.285156 49.144531 C 44.285156 48.730469 44.621094 48.394531 45.035156 48.394531 C 45.449219 48.394531 45.785156 48.730469 45.785156 49.144531 Z M 45.785156 51.25 C 45.785156 51.664062 45.449219 52 45.035156 52 C 44.621094 52 44.285156 51.664062 44.285156 51.25 C 44.285156 50.832031 44.621094 50.496094 45.035156 50.496094 C 45.449219 50.496094 45.785156 50.832031 45.785156 51.25 Z M 47.890625 9.167969 C 47.890625 9.582031 47.554688 9.917969 47.140625 9.917969 C 46.722656 9.917969 46.386719 9.582031 46.386719 9.167969 C 46.386719 8.753906 46.722656 8.417969 47.140625 8.417969 C 47.554688 8.417969 47.890625 8.753906 47.890625 9.167969 Z M 47.890625 11.273438 C 47.890625 11.6875 47.554688 12.023438 47.140625 12.023438 C 46.722656 12.023438 46.386719 11.6875 46.386719 11.273438 C 46.386719 10.855469 46.722656 10.519531 47.140625 10.519531 C 47.554688 10.519531 47.890625 10.855469 47.890625 11.273438 Z M 47.890625 13.375 C 47.890625 13.789062 47.554688 14.128906 47.140625 14.128906 C 46.722656 14.128906 46.386719 13.789062 46.386719 13.375 C 46.386719 12.960938 46.722656 12.625 47.140625 12.625 C 47.554688 12.625 47.890625 12.960938 47.890625 13.375 Z M 47.890625 15.480469 C 47.890625 15.894531 47.554688 16.230469 47.140625 16.230469 C 46.722656 16.230469 46.386719 15.894531 46.386719 15.480469 C 46.386719 15.066406 46.722656 14.726562 47.140625 14.726562 C 47.554688 14.726562 47.890625 15.066406 47.890625 15.480469 Z M 47.890625 17.582031 C 47.890625 18 47.554688 18.335938 47.140625 18.335938 C 46.722656 18.335938 46.386719 18 46.386719 17.582031 C 46.386719 17.167969 46.722656 16.832031 47.140625 16.832031 C 47.554688 16.832031 47.890625 17.167969 47.890625 17.582031 Z M 49.996094 7.0625 C 49.996094 7.480469 49.65625 7.816406 49.242188 7.816406 C 48.828125 7.816406 48.492188 7.480469 48.492188 7.0625 C 48.492188 6.648438 48.828125 6.3125 49.242188 6.3125 C 49.65625 6.3125 49.996094 6.648438 49.996094 7.0625 Z M 49.996094 9.167969 C 49.996094 9.582031 49.65625 9.917969 49.242188 9.917969 C 48.828125 9.917969 48.492188 9.582031 48.492188 9.167969 C 48.492188 8.753906 48.828125 8.417969 49.242188 8.417969 C 49.65625 8.417969 49.996094 8.753906 49.996094 9.167969 Z M 49.996094 11.273438 C 49.996094 11.6875 49.65625 12.023438 49.242188 12.023438 C 48.828125 12.023438 48.492188 11.6875 48.492188 11.273438 C 48.492188 10.855469 48.828125 10.519531 49.242188 10.519531 C 49.65625 10.519531 49.996094 10.855469 49.996094 11.273438 Z M 49.996094 13.375 C 49.996094 13.789062 49.65625 14.128906 49.242188 14.128906 C 48.828125 14.128906 48.492188 13.789062 48.492188 13.375 C 48.492188 12.960938 48.828125 12.625 49.242188 12.625 C 49.65625 12.625 49.996094 12.960938 49.996094 13.375 Z M 49.996094 15.480469 C 49.996094 15.894531 49.65625 16.230469 49.242188 16.230469 C 48.828125 16.230469 48.492188 15.894531 48.492188 15.480469 C 48.492188 15.066406 48.828125 14.726562 49.242188 14.726562 C 49.65625 14.726562 49.996094 15.066406 49.996094 15.480469 Z M 49.996094 17.582031 C 49.996094 18 49.65625 18.335938 49.242188 18.335938 C 48.828125 18.335938 48.492188 18 48.492188 17.582031 C 48.492188 17.167969 48.828125 16.832031 49.242188 16.832031 C 49.65625 16.832031 49.996094 17.167969 49.996094 17.582031 Z M 49.996094 19.6875 C 49.996094 20.101562 49.65625 20.4375 49.242188 20.4375 C 48.828125 20.4375 48.492188 20.101562 48.492188 19.6875 C 48.492188 19.273438 48.828125 18.9375 49.242188 18.9375 C 49.65625 18.9375 49.996094 19.273438 49.996094 19.6875 Z M 52.097656 13.375 C 52.097656 13.789062 51.761719 14.128906 51.347656 14.128906 C 50.933594 14.128906 50.59375 13.789062 50.59375 13.375 C 50.59375 12.960938 50.933594 12.625 51.347656 12.625 C 51.761719 12.625 52.097656 12.960938 52.097656 13.375 Z M 52.097656 15.480469 C 52.097656 15.894531 51.761719 16.230469 51.347656 16.230469 C 50.933594 16.230469 50.59375 15.894531 50.59375 15.480469 C 50.59375 15.066406 50.933594 14.726562 51.347656 14.726562 C 51.761719 14.726562 52.097656 15.066406 52.097656 15.480469 Z M 52.097656 17.582031 C 52.097656 18 51.761719 18.335938 51.347656 18.335938 C 50.933594 18.335938 50.59375 18 50.59375 17.582031 C 50.59375 17.167969 50.933594 16.832031 51.347656 16.832031 C 51.761719 16.832031 52.097656 17.167969 52.097656 17.582031 Z M 52.097656 19.6875 C 52.097656 20.101562 51.761719 20.4375 51.347656 20.4375 C 50.933594 20.4375 50.59375 20.101562 50.59375 19.6875 C 50.59375 19.273438 50.933594 18.9375 51.347656 18.9375 C 51.761719 18.9375 52.097656 19.273438 52.097656 19.6875 Z M 54.203125 15.480469 C 54.203125 15.894531 53.867188 16.230469 53.449219 16.230469 C 53.035156 16.230469 52.699219 15.894531 52.699219 15.480469 C 52.699219 15.066406 53.035156 14.726562 53.449219 14.726562 C 53.867188 14.726562 54.203125 15.066406 54.203125 15.480469 Z M 54.203125 17.582031 C 54.203125 18 53.867188 18.335938 53.449219 18.335938 C 53.035156 18.335938 52.699219 18 52.699219 17.582031 C 52.699219 17.167969 53.035156 16.832031 53.449219 16.832031 C 53.867188 16.832031 54.203125 17.167969 54.203125 17.582031 Z M 54.203125 17.582031 "/>
</g>
</svg>
